<svg xmlns="http://www.w3.org/2000/svg" xmlns:xlink="http://www.w3.org/1999/xlink" version="1.1" baseProfile="full" width="100" height="100" viewBox="0 0 100.00 100.00" enable-background="new 0 0 100.00 100.00" xml:space="preserve">
	<path fill="#000000" fill-opacity="1" stroke-width="0.2" stroke-linejoin="round" d="M 15.625,18.7499L 15.625,81.2499L 25,81.2499L 25,87.5L 9.37498,87.5L 9.37498,12.4999L 25,12.4999L 25,18.7499L 15.625,18.7499 Z M 28.125,81.2499L 28.125,68.7499L 34.375,68.7499L 34.375,81.25L 84.375,81.25L 84.375,43.75L 59.375,43.75L 59.375,18.75L 34.375,18.75L 34.375,56.2499L 28.125,56.2499L 28.125,18.7499L 28.125,12.5L 67.1875,12.5L 90.625,35.9375L 90.6251,87.5L 28.125,87.5L 28.125,81.2499 Z M 18.7502,59.375L 53.9066,59.375L 40.6252,46.875L 50.0002,46.875L 70.3128,62.5L 50.0003,78.125L 40.6253,78.125L 53.9064,65.6249L 18.75,65.6249L 18.7502,59.375 Z M 65.625,20.3126L 65.625,37.5L 82.8124,37.5L 65.625,20.3126 Z "/>
</svg>