<svg xmlns="http://www.w3.org/2000/svg" xmlns:xlink="http://www.w3.org/1999/xlink" version="1.1" id="Layer_1" x="0px" y="0px" width="100px" height="100px" viewBox="0 0 100 100" enable-background="new 0 0 100 100" xml:space="preserve">
  <path d="M14.464,11.923c-4.251,0-7.696,3.448-7.696,7.701v60.755c0,4.251,3.445,7.699,7.696,7.699c4.253,0,7.696-3.448,7.696-7.699  V19.623C22.16,15.371,18.717,11.923,14.464,11.923z M37.261,28.015c-4.251,0-7.698,3.448-7.698,7.696v44.667  c0,4.251,3.448,7.699,7.698,7.699c4.251,0,7.696-3.448,7.696-7.699V35.711C44.957,31.463,41.512,28.015,37.261,28.015z   M61.398,36.057c-4.251,0-7.696,3.452-7.696,7.703v36.619c0,4.251,3.446,7.699,7.696,7.699c4.248,0,7.694-3.448,7.694-7.699V43.76  C69.091,39.509,65.646,36.057,61.398,36.057z M85.536,28.015c-4.251,0-7.696,3.448-7.696,7.696v44.667  c0,4.251,3.445,7.699,7.696,7.699c4.248,0,7.696-3.448,7.696-7.699V35.711C93.232,31.463,89.784,28.015,85.536,28.015z"/>
</svg>
