<?xml version="1.0" encoding="utf-8"?>
<!-- Generator: Adobe Illustrator 16.0.0, SVG Export Plug-In . SVG Version: 6.00 Build 0)  -->
<!DOCTYPE svg PUBLIC "-//W3C//DTD SVG 1.1//EN" "http://www.w3.org/Graphics/SVG/1.1/DTD/svg11.dtd">
<svg version="1.1" id="Calque_1" xmlns="http://www.w3.org/2000/svg" xmlns:xlink="http://www.w3.org/1999/xlink" x="0px" y="0px"
	 width="100px" height="100px" viewBox="0 0 100 100" enable-background="new 0 0 100 100" xml:space="preserve">
<g>
	<path fill="#00AEE9" d="M36.681,9.119c-2.898,1.004-5.745,2.09-8.547,3.242l5.289,12.267C22.957,29.5,12.009,32.262,1.076,33.084
		l0.882,13.341c12.422-0.918,24.862-4.026,36.763-9.518l-5.29-12.275c2.502-1.023,5.041-1.988,7.626-2.885
		c17.27-5.984,34.893-8.552,52.141-8.077L92.038,0.268C73.709-0.06,55.012,2.766,36.681,9.119z"/>
	<path fill="#00AEE9" d="M38.716,36.909l5.292,12.276c1.905-0.77,3.838-1.499,5.803-2.179c15.15-5.25,30.633-7.28,45.711-6.47
		l-1.163-13.455c-16.166-0.629-32.717,1.68-48.924,7.296C43.159,35.166,40.92,36.013,38.716,36.909z"/>
	<path fill="#00AEE9" d="M49.3,61.465l5.292,12.273C38.394,81.08,21.486,85.234,4.607,86.447l0.884,13.337
		c18.365-1.31,36.764-5.812,54.393-13.773l-5.287-12.267c1.306-0.519,2.626-1.016,3.965-1.479
		c13.042-4.52,26.396-5.964,39.293-4.749l-1.169-13.526c-13.992-0.992-28.406,0.763-42.5,5.646
		C52.532,60.208,50.906,60.82,49.3,61.465z"/>
	<path fill="#00AEE9" d="M44.014,49.188C30.68,55.296,16.749,58.749,2.841,59.765l0.884,13.342
		c15.394-1.112,30.815-4.918,45.581-11.646L44.014,49.188z"/>
</g>
</svg>
