<svg xmlns="http://www.w3.org/2000/svg" xmlns:xlink="http://www.w3.org/1999/xlink" version="1.1" id="Layer_1" x="0px" y="0px" width="100px" height="100px" viewBox="0 0 100 100" enable-background="new 0 0 100 100" xml:space="preserve">
<g>
	<path d="M87.064,26.517L72.998,12.416c-1.501-1.504-3.539-2.35-5.664-2.35H17.775c-4.418,0-8,3.582-8,8v63.501c0,4.418,3.582,8,8,8   H81.4c4.418,0,8-3.582,8-8V32.167C89.4,30.049,88.561,28.017,87.064,26.517z M32.835,18.065h31.834v25.102H32.835V18.065z    M81.4,81.566H17.775V18.065h7.06v29.102c0,2.209,1.791,4,4,4h39.834c2.209,0,4-1.791,4-4V23.414l8.731,8.753V81.566z"/>
	<path d="M57.002,21.333c-2.209,0-4,1.791-4,4v10.5c0,2.209,1.791,4,4,4s4-1.791,4-4v-10.5   C61.002,23.124,59.211,21.333,57.002,21.333z"/>
</g>
</svg>